<svg width="128" height="128" viewBox="0 0 128 128" fill="none" xmlns="http://www.w3.org/2000/svg">
<path d="M65.3164 12.0547C65.4809 12.0547 94.1097 12.0547 94.1097 12.0547C94.1097 21.8719 86.3218 30.9212 75.2432 30.9212C75.0787 30.9212 46.5047 30.9212 46.5047 30.9212C46.4498 20.9943 54.4571 12.0547 65.3164 12.0547Z" fill="#F5871F"/>
<path d="M109.631 39.147C109.686 39.3116 124 64.0464 124 64.0464C115.499 68.9824 103.708 66.7887 98.1686 57.0812C98.1138 56.9167 83.7993 32.1818 83.7993 32.1818C92.5744 27.2458 104.256 29.7138 109.631 39.147Z" fill="#D84332"/>
<path d="M29.8318 70.9018C29.8866 71.0663 44.2011 95.8012 44.2011 95.8012C35.7002 100.737 23.9086 98.5434 18.3693 88.8359C18.3144 88.6714 4 63.9365 4 63.9365C12.7203 59.0553 24.4022 61.5782 29.8318 70.9018Z" fill="#28B9A2"/>
<path d="M40.9634 37.8318C40.9085 37.9963 26.5941 62.7312 26.5941 62.7312C18.0932 57.7952 14.0896 46.4972 19.6289 36.8994C19.6837 36.7349 33.9981 12 33.9981 12C42.6636 17.1005 46.3382 28.4534 40.9634 37.8318Z" fill="#E7B121"/>
<path d="M108.477 91.1414C108.422 91.3059 94.1073 116.041 94.1073 116.041C85.6064 111.105 81.6028 99.8068 87.1421 90.209C87.1969 90.0445 101.511 65.3096 101.511 65.3096C110.177 70.3004 113.851 81.7081 108.477 91.1414Z" fill="#1D2348"/>
<path d="M52.9207 97.1738C53.0852 97.1738 81.7141 97.1738 81.7141 97.1738C81.7141 106.991 73.9262 116.04 62.8476 116.04C62.683 116.04 34.109 116.04 34.109 116.04C33.9993 106.059 42.0615 97.1738 52.9207 97.1738Z" fill="#1681C4"/>
</svg>
