<svg width="128" height="128" viewBox="0 0 128 128" fill="none" xmlns="http://www.w3.org/2000/svg">
<mask id="mask0_1782_12750" style="mask-type:luminance" maskUnits="userSpaceOnUse" x="4" y="13" width="120" height="103">
<path d="M4 13H124V115.857H4V13Z" fill="white"/>
</mask>
<g mask="url(#mask0_1782_12750)">
<path fill-rule="evenodd" clip-rule="evenodd" d="M88.4115 107.96C88.3693 107.802 88.3501 107.639 88.3543 107.475L90.2515 69.7947L84.5201 75.4976C84.2376 75.8186 83.8925 76.0784 83.5059 76.261C83.1192 76.4435 82.6993 76.5449 82.272 76.559C81.8447 76.5731 81.419 76.4995 81.0212 76.3428C80.6234 76.1861 80.2619 75.9496 79.959 75.6478C79.656 75.3461 79.4181 74.9855 79.2599 74.5883C79.1016 74.1911 79.0264 73.7657 79.0388 73.3383C79.0512 72.911 79.151 72.4907 79.3321 72.1033C79.5131 71.716 79.7716 71.3698 80.0915 71.0862L87.8401 63.3662L80.0915 55.6519C79.6609 55.2138 79.3696 54.6581 79.254 54.0548C79.1385 53.4515 79.2039 52.8275 79.4421 52.2613C79.6803 51.6951 80.0807 51.212 80.5927 50.8728C81.1048 50.5335 81.7058 50.3533 82.3201 50.3547C83.1393 50.3483 83.9287 50.662 84.5201 51.229L90.8629 57.549L93.0343 14.3262L65.1772 20.7262C64.4552 20.8987 63.7021 20.8928 62.9829 20.709L37.4629 14.3547L38.6058 59.6805H44.8686C45.6853 59.7012 46.4617 60.0392 47.0335 60.6226C47.6052 61.2061 47.9273 61.9893 47.9315 62.8062C47.9331 63.6243 47.6127 64.4102 47.0396 64.994C46.4665 65.5778 45.6866 65.9127 44.8686 65.9262H38.7543L39.8001 107.515C39.8012 107.667 39.7819 107.819 39.7429 107.966L62.8401 114.235C63.6503 114.454 64.5041 114.454 65.3143 114.235L88.4115 107.96ZM35.6401 66.7719L36.6686 107.595C36.6686 107.709 36.6839 107.823 36.7143 107.938L15.5772 113.195C14.5638 113.446 13.4959 113.353 12.5405 112.933C11.5851 112.512 10.7962 111.786 10.2972 110.869C9.96772 110.262 9.78017 109.588 9.74863 108.898L8.14863 77.8919C8.39714 77.8521 8.64051 77.785 8.87434 77.6919L16.2229 74.6976C16.794 74.4617 17.2829 74.0627 17.6284 73.5504C17.974 73.0382 18.1609 72.4355 18.1658 71.8176C18.1688 71.4065 18.0902 70.9989 17.9347 70.6183C17.7791 70.2378 17.5496 69.8919 17.2594 69.6007C16.9692 69.3094 16.6242 69.0786 16.2442 68.9217C15.8642 68.7647 15.4569 68.6846 15.0458 68.6862C14.6353 68.6899 14.2289 68.7673 13.8458 68.9147L7.81148 71.3776L5.52577 26.9719C5.47408 25.9292 5.77209 24.8991 6.37251 24.045C6.97294 23.191 7.84139 22.5619 8.84006 22.2576L34.3201 14.4405L35.4686 60.0862L28.5372 62.9147C27.7855 63.2386 27.1909 63.8444 26.8811 64.602C26.5712 65.3595 26.5708 66.2084 26.8801 66.9662C27.1911 67.726 27.7886 68.333 28.5435 68.6559C29.2984 68.9788 30.15 68.9917 30.9143 68.6919L35.6401 66.7719ZM91.4858 107.635L93.4286 68.9376L100.029 75.509C100.313 75.8244 100.658 76.0786 101.044 76.2563C101.429 76.434 101.847 76.5315 102.271 76.5427C102.696 76.554 103.118 76.4788 103.513 76.3219C103.907 76.1649 104.265 75.9293 104.566 75.6295C104.867 75.3297 105.103 74.9719 105.261 74.5779C105.419 74.1838 105.495 73.7618 105.485 73.3374C105.475 72.9129 105.379 72.495 105.202 72.109C105.025 71.723 104.772 71.3769 104.457 71.0919L96.7086 63.3719L104.457 55.6519C104.758 55.3646 104.999 55.0201 105.166 54.6385C105.332 54.2569 105.42 53.8459 105.426 53.4296C105.431 53.0134 105.353 52.6003 105.197 52.2145C105.04 51.8288 104.808 51.4782 104.514 51.1833C104.218 50.889 103.866 50.6567 103.479 50.4999C103.092 50.3432 102.677 50.2652 102.259 50.2705C101.842 50.2759 101.429 50.3644 101.046 50.5309C100.663 50.6974 100.317 50.9387 100.029 51.2405L94.0172 57.2176L96.1658 14.4805L119.423 22.2005C120.397 22.522 121.239 23.1547 121.82 24.0012C122.4 24.8477 122.686 25.8612 122.634 26.8862L118.406 108.898C118.354 109.94 117.955 110.935 117.271 111.723C116.587 112.512 115.659 113.048 114.634 113.246C113.954 113.387 113.251 113.372 112.577 113.2L91.4401 107.938C91.4643 107.838 91.4796 107.737 91.4858 107.635ZM60.4286 59.6862C59.612 59.7055 58.8349 60.042 58.2621 60.6244C57.6893 61.2068 57.3658 61.9893 57.3601 62.8062C57.3585 63.6253 57.6796 64.412 58.254 64.996C58.8283 65.58 59.6096 65.9142 60.4286 65.9262H68.2115C69.0271 65.9054 69.8027 65.5683 70.3743 64.986C70.9459 64.4038 71.2687 63.6221 71.2743 62.8062C71.2775 61.9871 70.9577 61.1997 70.3845 60.6147C69.8112 60.0296 69.0305 59.694 68.2115 59.6805L60.4286 59.6862Z" fill="url(#paint0_radial_1782_12750)"/>
</g>
<defs>
<radialGradient id="paint0_radial_1782_12750" cx="0" cy="0" r="1" gradientUnits="userSpaceOnUse" gradientTransform="translate(122.64 114.4) rotate(180) scale(117.122 100.072)">
<stop stop-color="#EC991C"/>
<stop offset="1" stop-color="#E9B213"/>
</radialGradient>
</defs>
</svg>
