<svg width="471" height="100" viewBox="0 0 471 100" fill="none" xmlns="http://www.w3.org/2000/svg">
<path d="M124.332 45.3125L98.2256 4.6875C96.3459 1.78125 92.8999 0 89.1755 0H36.9633C33.2389 0 29.7929 1.78125 27.9306 4.6875L1.82458 45.3125C-0.037656 48.2188 -0.037656 51.7813 1.82458 54.6875L27.9306 95.3125C29.7929 98.2188 33.2389 100 36.9633 100H89.1755C92.8999 100 96.3459 98.2188 98.2082 95.3125L124.314 54.6875C126.194 51.7813 126.194 48.2188 124.332 45.3125Z" fill="white"/>
<path d="M217.095 20.3124H228.442V79.6874H219.705L184.027 38.2811V79.6874H172.714V20.3124H181.416L217.095 61.7186V20.3124Z" fill="white"/>
<path d="M251.032 79.6874V20.3124H263.214V79.6874H251.032Z" fill="white"/>
<path d="M340.663 20.3124H350.235V79.6874H339.793V42.9686L321.954 79.6874H314.122L296.283 42.9686V79.6874H285.84V20.3124H295.412L318.038 66.7967L340.663 20.3124Z" fill="white"/>
<path d="M372.859 79.6874V20.3124H385.042V79.6874H372.859Z" fill="white"/>
<path d="M466.424 66.157C462.873 72.4851 457.356 76.2039 452.466 78.0164C453.04 79.2039 455.738 82.5164 457.774 84.4226C459.81 86.3289 461.951 88.2664 464.666 90.2351L456.399 96.0945C453.353 94.1882 450.708 91.907 448.01 89.2507C445.313 86.5945 443.015 83.657 440.927 80.3914C440.422 80.4226 439.012 80.4695 438.125 80.4695C431.389 80.4695 425.768 79.2351 420.912 76.782C416.057 74.3132 412.349 70.782 409.791 66.157C407.442 61.9539 405.927 56.3445 405.927 50.0007C405.927 43.657 407.233 38.4695 409.826 33.8445C412.419 29.2351 416.144 25.6882 420.999 23.2195C425.855 20.7507 431.529 19.532 438.125 19.532C444.721 19.532 450.482 20.7664 455.337 23.2195C460.193 25.6882 463.9 29.2195 466.459 33.8445C469.034 38.4695 470.322 43.657 470.322 50.0007C470.322 56.3445 468.773 61.9695 466.424 66.157ZM423.384 66.2039C426.899 69.9851 431.807 71.8757 438.125 71.8757C444.443 71.8757 449.368 69.9851 452.866 66.2039C456.382 62.407 458.14 57.0632 458.14 50.0007C458.14 42.9851 456.382 37.5164 452.866 33.7664C449.35 30.0164 444.443 28.1257 438.125 28.1257C431.807 28.1257 426.882 29.9851 423.384 33.7195C419.868 37.4539 418.11 42.9382 418.11 50.0007C418.11 57.0632 419.868 62.407 423.384 66.2039Z" fill="white"/>
</svg>
